<?xml version="1.0" encoding="utf-8"?>
<!-- Generator: Adobe Illustrator 28.3.0, SVG Export Plug-In . SVG Version: 6.00 Build 0)  -->
<svg version="1.1" id="Layer_1" xmlns="http://www.w3.org/2000/svg" xmlns:xlink="http://www.w3.org/1999/xlink" x="0px" y="0px"
	 viewBox="0 0 1110.3 1110.3" style="enable-background:new 0 0 1110.3 1110.3;" xml:space="preserve">
<style type="text/css">
	.st0{fill:#FF4800;}
	.st1{fill:#FF5500;}
	.st2{fill:#FFFFD2;}
</style>
<g>
	
		<text transform="matrix(1 0 0 1 3593.2605 858.1998)" style="fill:#280274; font-family:'BlindsAudience-Regular'; font-size:363.0611px;">studio</text>
</g>
<g>
	<path class="st0" d="M-1217.1,409.93c0-0.89-0.3-1.63-0.89-2.23c-9.51-7.42-19.02-11.14-28.53-11.14s-19.02,3.72-28.52,11.14
		c-7.14,5.65-14.57,13.53-22.29,23.63c-2.98,3.86-6.24,8.46-9.81,13.81l-4.46,6.69l-4.45,6.24l-19.17,30.76l-18.72,30.31
		c-16.35,26.45-29.28,46.8-38.78,61.07c-17.54,26.74-36.41,53.04-56.62,78.9l11.15-24.52c21.1-48.73,35.06-92.27,41.9-130.61
		c1.78-10.39,2.67-19.76,2.67-28.08c0-13.66-2.52-24.81-7.57-33.43c-5.65-9.81-15.16-16.79-28.53-20.95
		c-8.92-2.68-19.47-4.01-31.65-4.01h-4.01c-0.3-0.3-0.6-0.45-0.89-0.45c-0.3,0-0.6,0.15-0.9,0.45c-0.89,0.6-1.49,1.33-1.78,2.23
		c0,0.89,0.29,1.78,0.89,2.67c4.46,5.65,6.69,13.97,6.69,24.96c0,5.65-0.6,11.89-1.78,18.72c-1.19,6.84-2.98,15.01-5.35,24.52
		l-1.79,5.8l-1.33,4.9c-0.89,4.16-1.64,7.13-2.23,8.91c-2.85,12.33-6.57,26.67-11.16,43.02c-0.69,0.38-1.27,0.9-1.77,1.56
		c-38.33,54.09-65.16,87.97-80.46,101.63c-15.31,13.68-25.56,22.67-30.76,26.97c-5.2,4.31-8.54,6.46-10.02,6.46
		c-1.2,0-1.79-1.78-1.79-5.34c0-2.97,0.45-6.98,1.34-12.04c1.48-11.59,8.98-28.23,22.51-49.92c13.52-21.69,29.2-44.87,47.03-69.54
		l20.5-28.09c7.43-10.39,13.97-19.75,19.62-28.08l2.67-4.46l3.12-4.45c2.08-3.57,3.71-6.98,4.9-10.26
		c1.79-4.15,2.68-8.02,2.68-11.59c0-3.26-0.75-6.24-2.23-8.91c-6.24-10.1-15.46-18.12-27.64-24.07c-10.4-5.05-20.8-7.58-31.2-7.58
		h-4.46c-1.19,0.3-2.23,0.75-3.12,1.34c-1.49,0.3-2.67,1.04-3.56,2.23c-11.89,16.34-24.97,35.36-39.23,57.05v-1.33
		c0-21.99-6.39-40.12-19.17-54.39c-10.1-11.29-23.78-17.83-41.01-19.61c-3.56-0.59-7.28-0.89-11.14-0.89
		c-12.19,0-23.63,2.83-34.33,8.47c-53.29,26.49-98.26,72.23-134.91,137.23c-18.06,23.39-41.89,57.15-71.47,101.25
		c-31.5,46.96-52.31,70.43-62.41,70.43c-4.16,0-6.24-5.35-6.24-16.05c-0.3-0.59-0.44-1.18-0.44-1.78c0-10.1,1.18-19.02,3.56-26.75
		c2.08-8.31,8.1-24.44,18.06-48.36c9.95-23.92,27.56-51.93,52.82-84.03c5.35-6.53,11.73-13.82,19.17-21.84l10.69-10.25l10.26-10.25
		c18.12-17.83,31.2-32.25,39.22-43.24c4.46-5.94,6.69-12.93,6.69-20.95c0-3.57-0.45-7.43-1.34-11.59
		c-2.67-12.18-8.62-21.85-17.83-28.98c-3.56-2.67-7.88-4.01-12.92-4.01c-5.35,0-11.45,1.64-18.28,4.9l-8.02,4.02l-7.58,4.01
		c-6.24,3.27-11.15,5.65-14.71,7.13c-11.3,5.06-22.44,8.02-33.43,8.91h-4.46c-17.54,0-26.6-8.16-27.19-24.51
		c0-3.27,0.14-7.28,0.44-12.04l0.45-12.92v-5.8c0-7.72-0.89-13.82-2.68-18.27c-3.27-8.32-10.1-13.08-20.5-14.27
		c-1.78-0.29-3.42-0.44-4.9-0.44c-8.03,0-14.87,2.38-20.51,7.13c-14.26,11.89-23.48,28.83-27.64,50.81
		c-1.19,6.54-1.78,12.78-1.78,18.73c0,13.97,2.82,26.89,8.47,38.78c2.38,4.75,3.57,9.21,3.57,13.37c0,2.38-0.45,4.46-1.34,6.24
		c-2.08,5.65-10.41,19.1-24.96,40.34c-14.57,21.25-23.34,34.1-26.3,38.56c-6.01,8.17-9.85,15.08-11.52,20.75
		c-7.18,6.35-13.89,13.4-20.13,21.15c-9.22,11.3-24.6,33.43-46.14,66.42c-21.55,32.98-47.92,62.7-79.12,89.15
		s-59.88,39.67-86.03,39.67c-9.81,0-19.77-1.78-29.87-5.35c-22.58-7.73-37.29-26.9-44.13-57.5c-2.67-11.88-4.16-25.41-4.45-40.56
		v-8.03c0-8.61,0.29-18.27,0.89-28.97c2.67-41.6,11.59-82.17,26.74-121.69c38.34-96.88,89.6-178.15,153.79-243.83l5.35-5.35
		c2.67-2.97,5.35-5.64,8.02-8.03c7.43-6.83,14.41-12.48,20.95-16.93c10.7-7.43,19.62-11.15,26.75-11.15c5.05,0,9.2,2.08,12.48,6.24
		c2.97,4.17,4.46,9.52,4.46,16.05c0,7.43-1.94,16.65-5.8,27.64c-2.38,7.13-5.79,15.15-10.25,24.07c-1.49,2.97-3.12,6.39-4.9,10.25
		l-2.23,4.46l-1.79,3.56c-17.83,35.96-40.41,71.62-67.75,106.99c-1.19,1.19-3.12,3.71-5.8,7.57l-3.12,4.01l-3.12,4.46
		c-5.94,7.43-11.14,13.67-15.6,18.72c-13.67,14.27-25.85,21.7-36.55,22.29c-0.89,0-1.49,0.45-1.78,1.34c-0.6,0.6-0.9,1.19-0.9,1.78
		v5.8c0,16.04,3.13,29.72,9.37,41.01c8.31,13.97,20.95,22.28,37.89,24.96c2.37,0.3,4.6,0.45,6.68,0.45c8.32,0,17.23-1.63,26.75-4.91
		c9.5-3.26,19.76-8.47,30.75-15.6c46.06-28.53,87.82-76.96,125.26-145.32c16.34-29.71,27.93-57.05,34.77-82.02
		c5.64-20.2,8.47-39.07,8.47-56.61c0-10.99-1.04-21.39-3.12-31.2c-5.65-26.45-21.4-45.31-47.25-56.61
		c-15.75-6.83-33.43-10.25-53.05-10.25c-7.43,0-15.15,0.44-23.17,1.33c-38.94,4.76-78.61,21.11-119.02,49.04
		c-31.8,21.99-63.9,51.11-96.29,87.37c-74.29,83.51-120.95,176.52-139.96,279.04c-5.06,27.64-7.58,54.38-7.58,80.24
		c0,18.72,1.34,36.99,4.01,54.82c7.72,50.52,25.85,90.94,54.38,121.25c23.18,24.66,52.45,39.52,87.82,44.58
		c8.61,1.18,17.08,1.78,25.41,1.78c25.25,0,49.03-5.95,71.32-17.83c29.42-15.76,58.46-38.41,87.14-67.98
		c28.68-29.57,52.97-64.26,72.88-104.08c13.97-27.93,31.05-60.33,51.27-97.18l4.45-12.03l2.25-6.31c0.37-0.15,0.66-0.27,0.87-0.38
		c0.6,0,1.04-0.29,1.34-0.89h0.45c32.68-43.39,53.33-69.46,61.96-78.23c8.61-8.76,16.19-13.45,22.73-14.04
		c9.81,0,20.21-1.19,31.2-3.57c-40.71,37.15-71.47,74.89-92.27,113.22c-17.54,32.4-26.74,64.94-27.63,97.62v4.91
		c0,37.44,12.92,65.08,38.78,82.91c9.8,6.83,19.9,10.25,30.31,10.25c1.48,0.29,3.12,0.45,4.9,0.45c21.02,0,54.15-32.33,99.41-96.99
		c-0.01,0.23-0.01,0.47-0.01,0.7c0,35.96,16.94,57.35,50.82,64.19c4.16,0.89,8.32,1.34,12.48,1.34c17.83,0,35.66-7.58,53.49-22.74
		c20.21-17.23,43.53-41.45,69.99-72.65c-0.6,4.16-0.89,8.32-0.89,12.48c0,13.97,3.56,27.19,10.69,39.67
		c9.81,17.83,23.78,27.78,41.91,29.87c2.96,0.29,5.94,0.44,8.91,0.44c24.36,0,46.95-11.14,67.75-33.43
		c10.1-10.99,21.25-23.77,33.44-38.34l8.14-10.18l-5.91,17.76c-6.84,20.21-12.19,37.15-16.05,50.82l-0.45,1.78l-0.89,2.23l-1.78,4.9
		c-0.59,2.38-0.89,4.46-0.89,6.24c0,1.19,0.15,2.23,0.44,3.12c2.08,5.95,6.99,9.66,14.71,11.15c2.38,0.29,5.06,0.44,8.03,0.44
		c3.86,0,8.32-0.3,13.37-0.89c12.78-0.3,22.88-3.27,30.31-8.91c4.75-3.87,10.1-9.66,16.05-17.39l7.58-9.36l7.13-9.36
		c19.01-23.18,45.61-57.95,79.79-104.31l37.89-52.6l37.89-52.59c30.31-42.2,56.16-76.68,77.56-103.42c0.59-0.59,0.89-1.18,0.89-1.78
		C-1216.65,410.97-1216.8,410.53-1217.1,409.93z M-1666.42,503.98c-1.19,8.03-3.27,17.39-6.24,28.09
		c-1.19,3.86-2.38,7.57-3.57,11.14c-0.3,1.19-0.59,2.38-0.89,3.57c-0.3,0.89-0.6,1.78-0.89,2.67c-7.43,20.81-15.9,41.16-25.41,61.07
		l-24.96,25.41l-14.71,14.71c-5.65,5.95-10.7,11-15.16,15.15c-11.88,11-23.03,19.32-33.43,24.97c-0.89,0.6-1.78,0.89-2.67,0.89
		c-2.68,0-4.01-2.68-4.01-8.03c0-3.56,0.59-8.31,1.78-14.26c0.89-5.94,2.37-12.48,4.46-19.61c0.89-2.68,1.63-5.2,2.23-7.58
		c0.59-2.08,1.03-3.57,1.33-4.46c10.7-27.64,27.79-58.84,51.27-93.61l6.24-8.91l6.24-9.36c5.05-6.84,9.65-12.78,13.82-17.83
		c10.99-13.08,21.98-23.03,32.98-29.87c2.68-1.48,4.9-2.23,6.69-2.23c4.46,0,6.68,4.17,6.68,12.48
		C-1664.64,492.55-1665.23,497.74-1666.42,503.98z"/>
	<path class="st0" d="M-949.64,409.92c0.29,0.6,0.45,1.04,0.45,1.34c0,0.6-0.3,1.19-0.89,1.78c-21.4,26.75-47.25,61.22-77.56,103.42
		l-37.89,52.6l-37.89,52.6c-34.18,46.36-60.78,81.13-79.79,104.31l-7.13,9.36l-7.58,9.36c-5.95,7.72-11.3,13.52-16.05,17.38
		c-7.43,5.64-17.53,8.62-30.31,8.92c-5.05,0.59-9.51,0.89-13.37,0.89c-2.97,0-5.64-0.15-8.02-0.45c-7.72-1.49-12.63-5.2-14.71-11.14
		c-0.29-0.89-0.45-1.94-0.45-3.12c0-1.78,0.3-3.87,0.89-6.24l1.78-4.9l0.89-2.23l0.45-1.78c3.87-13.67,9.21-30.6,16.05-50.82
		l8.47-25.41l8.02-24.96c18.13-56.17,30.76-99.7,37.89-130.61c0.59-1.78,1.34-4.75,2.23-8.92l1.34-4.9l1.78-5.79
		c2.38-9.51,4.16-17.68,5.35-24.52c1.18-6.83,1.78-13.07,1.78-18.72c0-10.99-2.23-19.31-6.69-24.96c-0.6-0.89-0.89-1.78-0.89-2.67
		c0.29-0.89,0.89-1.63,1.78-2.23c0.29-0.29,0.59-0.45,0.89-0.45c0.29,0,0.59,0.15,0.89,0.45h4.01c12.18,0,22.73,1.34,31.65,4.01
		c13.37,4.17,22.88,11.14,28.53,20.95c5.05,8.62,7.58,19.77,7.58,33.43c0,8.32-0.89,17.68-2.67,28.08
		c-6.84,38.34-20.8,81.87-41.9,130.61l-11.14,24.52c20.21-25.85,39.07-52.15,56.61-78.9c9.51-14.26,22.43-34.62,38.78-61.07
		l18.72-30.31l19.17-30.76l4.46-6.24l4.46-6.69c3.57-5.35,6.83-9.95,9.81-13.82c7.72-10.1,15.16-17.98,22.29-23.62
		c9.51-7.42,19.01-11.14,28.53-11.14c9.51,0,19.01,3.72,28.53,11.14C-949.94,408.29-949.64,409.03-949.64,409.92z"/>
	<path class="st0" d="M-334.5,214.24c-8.02-31.49-27.63-47.99-58.84-49.48h-4.01c-21.1,0-43.54,6.84-67.31,20.51
		c-21.69,12.48-40.71,28.38-57.05,47.69l-2.68,3.12c-15.75,17.24-31.06,35.07-45.91,53.49c-36.85-2.67-79.35-8.61-127.49-17.83
		c-17.24-3.26-38.33-7.57-63.3-12.92l-31.2-6.69l-31.2-7.13l-33.43-7.13l-33.44-7.58c-27.33-5.94-50.21-10.55-68.64-13.82
		c-46.65-8.32-87.96-12.48-123.92-12.48h-13.38c-31.49,1.19-60.47,12.93-86.92,35.21c-26.74,22.89-42.34,49.64-46.8,80.24
		c-0.59,3.87-0.89,8.32-0.89,13.37c0,4.76,0.3,10.11,0.89,16.05c0.3,3.27,2.08,5.06,5.35,5.35c0.89,0.6,1.78,0.89,2.67,0.89
		c1.49,0,2.68-0.59,3.57-1.78c15.75-16.64,38.19-29.57,67.31-38.78c25.26-8.03,50.97-12.04,77.11-12.04c21.4,0,46.96,1.94,76.67,5.8
		l37.89,6.24l37.89,5.79l73.11,12.04l73.55,12.03c57.35,9.22,106.38,15.76,147.1,19.62c-32.1,44.28-64.49,93.16-97.18,146.65
		l2.23-0.45c-0.6,0.6-1.04,1.2-1.34,1.79c-12.78,20.8-23.48,40.12-32.09,57.95c-2.5,5.19-4.86,10.3-7.07,15.33
		c-12.85,17.18-27.88,34.65-45.09,52.42c-21.1,21.7-42.05,39.08-62.85,52.15c-21.99,13.98-40.27,21.11-54.83,21.4h-0.89
		c-9.8,0-20.21-5.35-31.2-16.05c-9.81-9.5-14.71-26.44-14.71-50.81v-8.47c3.27,14.86,13.52,24.67,30.76,29.42
		c4.45,1.19,9.06,1.78,13.82,1.78c9.8,0,20.05-2.52,30.75-7.58c6.24-2.96,12.93-6.98,20.06-12.03l9.36-6.69l8.92-6.69
		c25.25-19.61,46.36-41.74,63.3-66.41c19.9-28.82,31.2-56.91,33.87-84.25c0.3-1.78,0.45-3.57,0.45-5.35
		c0-22.58-11.89-43.24-35.66-61.96c-7.13-5.64-15.31-8.47-24.52-8.47c-3.86,0-7.88,0.45-12.03,1.34
		c-5.35,1.19-11.59,3.27-18.73,6.24l-8.91,4.46l-8.92,4.01c-57.65,27.04-105.35,69.24-143.08,126.59l-0.45,0.89
		c-0.89,0.9-1.49,1.79-1.78,2.68c-7.73,19.02-13.38,33.88-16.94,44.57c-5.64,16.65-9.21,31.65-10.7,45.03
		c-0.59,5.64-0.89,11.29-0.89,16.93c0,26.75,8.32,49.93,24.96,69.54c18.12,21.11,44.42,35.06,78.9,41.9
		c4.16,0.9,8.47,1.34,12.93,1.34c15.74,0,33.13-5.2,52.15-15.6c26.37-14.26,55.05-37.24,86.03-68.96v0.31
		c0,32.99,11,59.14,32.99,78.46c12.48,10.69,25.85,16.04,40.12,16.04c26.62,0,59.92-21.16,99.87-63.5
		c9.98-10.57,20.37-22.46,31.18-35.68c54.08-66.12,82.46-110.17,85.14-132.16h-45.92c-6.6,9.62-23.5,31.2-50.71,64.75
		c-2.2,2.7-4.46,5.49-6.79,8.35c-31.2,38.34-54.53,63.01-69.98,74c-15.46,10.99-24.37,16.49-26.75,16.49
		c-4.16,0-6.84-11.44-8.02-34.32v-2.68c0-22.88,12.77-56.76,38.33-101.63c17.54-30.31,40.57-64.64,69.1-102.97
		c9.5-13.08,21.99-29.71,37.44-49.93l37.44-49.03l5.8-7.13c79.64-3.86,136.1-28.23,169.39-73.11
		c12.77-16.94,19.16-35.36,19.16-55.27C-331.38,231.33-332.42,222.86-334.5,214.24z M-949.64,590.02l4.46-7.14
		c15.74-25.55,36.84-50.07,63.29-73.55c10.4-8.91,21.99-17.75,34.77-26.52c12.78-8.76,25.56-14.63,38.34-17.61
		c-4.17,11.89-13.23,27.49-27.19,46.81c-5.65,7.43-12.34,15.45-20.06,24.07c-5.06,5.65-11.89,12.78-20.51,21.4
		c-26.74,26.74-50.52,40.11-71.32,40.11h-6.24L-949.64,590.02z M-391.55,261.05c-0.89,5.94-5.5,10.99-13.82,15.15
		c-2.98,1.49-6.54,2.98-10.7,4.46l-4.9,1.34l-4.46,1.33c-10.11,2.68-21.4,4.61-33.88,5.8c6.54-7.13,13.52-14.11,20.95-20.95
		c1.19-1.19,2.82-2.52,4.91-4.01c2.07-1.79,4.3-3.57,6.68-5.35c6.54-4.46,12.33-7.73,17.39-9.81c4.45-2.08,8.02-3.12,10.7-3.12
		c5.04,0,7.57,3.12,7.57,9.36C-391.11,257.03-391.26,258.97-391.55,261.05z"/>
	<path class="st0" d="M-167.34,376.94c-13.08-21.39-32.24-37.89-57.5-49.48c-0.89-0.29-1.64-0.44-2.23-0.44
		c-1.19,0-2.23,0.3-3.12,0.89c-1.78,1.19-2.83,2.67-3.12,4.46c-1.19,0.89-1.78,1.93-1.78,3.12c0,0.6,0.14,1.19,0.44,1.78
		c5.05,16.65,7.58,33.43,7.58,50.37c0,23.18-4.9,46.51-14.71,69.99c-15.75,38.04-41.61,69.09-77.56,93.16
		c-11.89,8.02-24.52,13.52-37.89,16.49c8.92-21.39,15.3-38.93,19.17-52.6c5.05-18.12,7.58-34.61,7.58-49.48v-4.45
		c-1.49-24.08-12.34-41.46-32.54-52.16c-11-5.64-22.44-8.47-34.33-8.47c-9.21,0-18.72,1.64-28.53,4.91
		c-22.88,8.02-40.41,24.22-52.6,48.58c-9.8,19.62-14.71,41.46-14.71,65.53v5.79c-2.97,0-5.79,0.3-8.46,0.9
		c-10.7,1.78-22.29,7.73-34.77,17.83c-4.76,3.86-9.81,8.32-15.16,13.37c-3.86,3.86-8.32,8.47-13.37,13.82
		c-12.76,13.68-23.27,29.03-31.55,46.03c27.21-33.55,44.11-55.13,50.71-64.75h45.92c-2.68,21.99-31.06,66.04-85.14,132.16
		c-10.81,13.22-21.2,25.11-31.18,35.68c1.91,9.19,5.31,17.88,10.23,26.06c10.4,17.83,25.56,29.27,45.47,34.32
		c7.13,1.79,14.41,2.68,21.84,2.68c16.34,0,32.54-4.91,48.59-14.71c17.23-11,34.91-28.08,53.04-51.26
		c18.42-24.37,35.81-53.64,52.15-87.82c3.27,0.3,6.54,0.45,9.81,0.45c43.39,0,90.04-17.98,139.97-53.94
		c51.71-37.74,79.79-79.49,84.25-125.26c0.29-4.45,0.44-8.76,0.44-12.92C-150.4,415.58-156.05,395.37-167.34,376.94z M-496.75,691.2
		c-2.98,2.98-6.24,5.65-9.81,8.03c-4.16,2.97-7.88,4.9-11.14,5.79c-1.78,0.6-3.42,0.89-4.91,0.89c-5.64,0-8.46-4.6-8.46-13.82
		c0-11.88,3.12-25.55,9.36-41.01c2.67-6.24,5.79-12.92,9.36-20.06c2.67-5.04,5.94-11.14,9.8-18.27
		c6.84-11.88,15.75-23.03,26.75-33.43c9.51,13.97,21.84,25.26,37,33.87C-456.34,644.4-475.65,670.4-496.75,691.2z M-391.55,477.68
		c-0.89,21.4-8.03,48.15-21.4,80.24c-3.86-2.97-7.43-6.69-10.7-11.14c-4.75-6.54-7.13-14.56-7.13-24.07c0-2.97,0.29-6.24,0.89-9.81
		c1.49-11.88,5.5-23.03,12.04-33.43c0.59-0.89,1.93-2.52,4.01-4.91c2.38-2.67,4.75-5.05,7.13-7.13c4.75-3.86,8.32-5.79,10.7-5.79
		c1.18,0,2.08,0.44,2.67,1.33c1.19,1.79,1.79,4.17,1.79,7.14V477.68z"/>
</g>
<g>
	<g>
		<g>
			<path class="st1" d="M1034.19,591.96l-40.23,24.74c-5.38,3.25-10.05,7.58-13.73,12.74c-3.68,5.16-6.3,11.03-7.69,17.26
				c-1.39,6.23-1.52,12.68-0.39,18.96c1.13,6.28,3.5,12.26,6.97,17.58l25.7,40.08c4.49,6.8,7.16,14.7,7.74,22.89
				c0.58,8.19-0.94,16.39-4.43,23.79c-3.48,7.4-8.8,13.73-15.42,18.37c-6.62,4.64-14.32,7.42-22.31,8.07l-46.58,4.31
				c-6.23,0.53-12.28,2.36-17.79,5.37s-10.36,7.14-14.26,12.14s-6.75,10.76-8.4,16.92c-1.64,6.17-2.04,12.61-1.17,18.95l6.2,47.52
				c1.17,8.12,0.23,16.42-2.71,24.06c-2.94,7.64-7.79,14.36-14.06,19.48c-6.27,5.12-13.74,8.48-21.67,9.73
				c-7.93,1.25-16.04,0.34-23.52-2.62l-43.98-16.75c-5.83-2.27-12.05-3.3-18.28-3.03c-6.23,0.27-12.34,1.84-17.96,4.61
				c-5.62,2.77-10.63,6.68-14.72,11.5c-4.09,4.82-7.18,10.44-9.08,16.52l-14.61,45.56c-2.4,7.83-6.76,14.87-12.65,20.44
				c-5.89,5.57-13.1,9.46-20.91,11.29c-7.81,1.83-15.96,1.53-23.63-0.86c-7.67-2.39-14.59-6.8-20.07-12.78l-32.43-34.6
				c-4.29-4.64-9.46-8.34-15.2-10.87c-5.73-2.53-11.91-3.83-18.16-3.83s-12.42,1.31-18.16,3.83c-5.73,2.53-10.91,6.23-15.2,10.87
				l-32.43,34.6c-5.49,5.98-12.41,10.39-20.07,12.78c-7.67,2.39-15.81,2.69-23.63,0.86c-7.81-1.83-15.02-5.72-20.91-11.29
				c-5.89-5.57-10.25-12.61-12.65-20.44l-14.61-45.56c-1.9-6.08-4.99-11.7-9.08-16.52c-4.09-4.82-9.1-8.73-14.72-11.5
				c-5.62-2.77-11.73-4.34-17.96-4.61c-6.23-0.27-12.45,0.76-18.28,3.03l-43.98,16.75c-7.48,2.96-15.59,3.86-23.52,2.62
				c-7.93-1.25-15.4-4.6-21.67-9.73c-6.27-5.12-11.12-11.84-14.06-19.48c-2.94-7.64-3.87-15.93-2.71-24.06l6.2-47.52
				c0.87-6.33,0.48-12.78-1.17-18.95c-1.64-6.17-4.5-11.93-8.4-16.92s-8.75-9.13-14.26-12.14s-11.56-4.84-17.79-5.37l-46.58-4.39
				c-8-0.65-15.69-3.43-22.31-8.07c-6.62-4.64-11.94-10.97-15.42-18.37c-3.48-7.4-5.01-15.6-4.43-23.79
				c0.58-8.19,3.25-16.08,7.74-22.89l25.7-40c3.47-5.31,5.84-11.29,6.97-17.58c1.13-6.28,1-12.73-0.39-18.96
				c-1.39-6.23-4.01-12.1-7.69-17.26c-3.68-5.16-8.36-9.49-13.73-12.74l-40.24-24.74c-6.92-4.14-12.66-10.06-16.65-17.17
				c-3.99-7.11-6.09-15.17-6.09-23.38s2.1-16.26,6.09-23.37c3.99-7.11,9.73-13.03,16.65-17.17l40.24-24.74
				c5.38-3.25,10.05-7.58,13.73-12.74c3.68-5.16,6.3-11.03,7.69-17.26c1.39-6.23,1.52-12.68,0.39-18.96
				c-1.13-6.28-3.5-12.26-6.97-17.58l-25.7-40.08c-4.49-6.8-7.16-14.7-7.74-22.89c-0.58-8.19,0.94-16.39,4.43-23.79
				c3.48-7.4,8.8-13.73,15.42-18.37c6.62-4.64,14.32-7.42,22.31-8.07l46.58-4.31c6.23-0.53,12.28-2.36,17.79-5.37
				c5.51-3.01,10.36-7.14,14.26-12.14c3.9-5,6.75-10.76,8.4-16.92c1.64-6.17,2.04-12.61,1.17-18.95l-6.2-47.52
				c-1.17-8.12-0.23-16.42,2.71-24.06c2.94-7.64,7.79-14.36,14.06-19.48c6.27-5.12,13.74-8.48,21.67-9.73
				c7.93-1.25,16.04-0.35,23.52,2.62l43.98,16.75c5.83,2.27,12.05,3.3,18.28,3.03c6.23-0.27,12.34-1.84,17.96-4.61
				c5.62-2.77,10.63-6.68,14.72-11.5c4.09-4.82,7.18-10.44,9.08-16.52l14.61-45.56c2.4-7.83,6.76-14.87,12.65-20.44
				c5.89-5.57,13.1-9.46,20.91-11.29c7.81-1.83,15.96-1.53,23.63,0.86c7.67,2.39,14.59,6.8,20.07,12.78l32.43,34.6
				c4.29,4.64,9.46,8.34,15.2,10.87c5.73,2.53,11.91,3.83,18.16,3.83s12.42-1.3,18.16-3.83c5.73-2.53,10.91-6.23,15.2-10.87
				l32.43-34.6c5.49-5.98,12.41-10.39,20.07-12.78c7.67-2.39,15.81-2.69,23.63-0.86c7.81,1.83,15.02,5.72,20.91,11.29
				c5.89,5.57,10.25,12.61,12.65,20.44l14.61,45.56c1.9,6.08,4.99,11.7,9.08,16.52c4.09,4.82,9.1,8.73,14.72,11.5
				c5.62,2.77,11.73,4.34,17.96,4.61c6.23,0.27,12.45-0.76,18.28-3.03l43.98-16.75c7.48-2.96,15.59-3.86,23.52-2.62
				c7.93,1.25,15.4,4.6,21.67,9.73c6.27,5.12,11.12,11.84,14.06,19.48c2.94,7.64,3.87,15.93,2.71,24.06l-6.2,47.52
				c-0.87,6.33-0.48,12.78,1.17,18.95c1.64,6.17,4.5,11.93,8.4,16.92c3.9,5,8.75,9.13,14.26,12.14c5.51,3.01,11.56,4.84,17.79,5.37
				l46.58,4.39c8,0.65,15.69,3.43,22.31,8.07c6.62,4.64,11.94,10.97,15.42,18.37c3.48,7.4,5.01,15.6,4.43,23.79
				c-0.58,8.19-3.25,16.08-7.74,22.89l-25.7,40c-3.47,5.31-5.84,11.29-6.97,17.58c-1.13,6.28-1,12.73,0.39,18.96
				c1.39,6.23,4.01,12.1,7.69,17.26c3.68,5.16,8.36,9.49,13.73,12.74l40.23,24.74c6.92,4.14,12.66,10.06,16.65,17.17
				c3.99,7.11,6.09,15.17,6.09,23.37s-2.1,16.26-6.09,23.38C1046.85,581.9,1041.11,587.82,1034.19,591.96L1034.19,591.96z"/>
			<circle class="st2" cx="564.76" cy="551.41" r="352.63"/>
		</g>
	</g>
	<g>
		<path class="st0" d="M867.75,557.64v2.19c0,18.55-7.4,36.99-22.2,55.33c-31.46,39.18-68.97,66.68-112.52,82.52
			c-7.3,2.7-13.96,4.79-20.01,6.25c-7.92,2.08-15.31,3.44-22.19,4.06c-2.08,0.21-4.06,0.32-5.94,0.32
			c-14.38,0-25.74-4.07-34.07-12.2c-10-10-16.15-23.33-18.44-40c-0.62-4.59-0.94-9.17-0.94-13.76c0-9.79,1.36-20.1,4.07-30.94
			c10-39.8,36.36-79.19,79.08-118.15c-5.84,1.04-11.57,1.56-17.19,1.56c-6.68,1.04-12.72,3.75-18.13,8.13
			c-5.42,4.37-20.01,22.19-43.76,53.44l-0.32,0.32c-0.21,0.42-0.52,0.62-0.93,0.62c-0.28,0.14-0.75,0.33-1.42,0.57l-2.02,5.68
			l-3.13,8.44c-14.17,25.84-26.15,48.56-35.94,68.14c-13.97,27.93-31,52.25-51.11,72.99c-20.11,20.73-40.48,36.62-61.11,47.67
			c-15.62,8.33-32.3,12.5-50.01,12.5c-5.83,0-11.77-0.42-17.81-1.25c-24.81-3.55-45.33-13.96-61.58-31.26
			c-20.01-21.25-32.72-49.59-38.13-85.02c-1.88-12.5-2.82-25.32-2.82-38.44c0-18.13,1.77-36.89,5.32-56.27
			c13.33-71.89,46.05-137.11,98.14-195.67c22.71-25.42,45.22-45.84,67.52-61.26c28.34-19.59,56.15-31.05,83.46-34.38
			c5.62-0.63,11.04-0.94,16.25-0.94c13.75,0,26.15,2.4,37.2,7.19c18.12,7.92,29.17,21.15,33.13,39.69
			c1.45,6.88,2.19,14.18,2.19,21.88c0,12.3-1.99,25.53-5.94,39.7c-4.8,17.51-12.93,36.68-24.38,57.51
			c-26.26,47.94-55.54,81.9-87.84,101.9c-7.71,5-14.9,8.65-21.56,10.94c-6.68,2.3-12.93,3.44-18.76,3.44c-1.46,0-3.02-0.1-4.69-0.31
			c-11.87-1.88-20.73-7.71-26.57-17.51c-4.37-7.91-6.56-17.5-6.56-28.75v-4.07c0-0.41,0.21-0.83,0.63-1.25
			c0.2-0.62,0.62-0.93,1.25-0.93c7.5-0.42,16.04-5.63,25.63-15.63c3.12-3.54,6.77-7.92,10.94-13.13l2.18-3.13l2.19-2.81
			c1.88-2.7,3.23-4.48,4.07-5.31c19.17-24.8,35-49.8,47.51-75.02l1.25-2.5l1.56-3.13c1.25-2.7,2.39-5.1,3.44-7.19
			c3.12-6.25,5.52-11.87,7.19-16.87c2.7-7.71,4.06-14.17,4.06-19.38c0-4.58-1.04-8.34-3.12-11.26c-2.3-2.91-5.22-4.37-8.76-4.37
			c-5,0-11.25,2.61-18.75,7.81c-4.59,3.13-9.48,7.09-14.69,11.88c-1.88,1.67-3.75,3.55-5.63,5.63l-2.19,2.18l-0.93,0.94l-0.63,0.63
			c-45.01,46.05-80.96,103.04-107.84,170.97c-10.62,27.72-16.87,56.16-18.75,85.34c-0.42,7.5-0.63,14.27-0.63,20.31v5.63
			c0.21,10.63,1.25,20.11,3.13,28.44c4.79,21.46,15.11,34.9,30.94,40.33c7.09,2.5,14.07,3.75,20.95,3.75
			c18.33,0,38.44-9.28,60.32-27.82c21.88-18.55,40.37-39.39,55.49-62.52c15.1-23.13,25.89-38.65,32.35-46.57
			c4.6-5.71,9.55-10.88,14.88-15.5c1.4-3.58,3.84-7.79,7.31-12.63c2.08-2.92,8.85-11.36,20.32-25.32
			c11.25-13.54,16.87-25.63,16.87-36.26v-0.62c-5-4.38-7.81-13.76-8.43-28.14v-5c0-18.13,5.1-32.92,15.31-44.38
			c4.58-5.42,10.32-8.75,17.19-10c1.46-0.21,2.92-0.32,4.38-0.32c5.63,0,10.1,2.3,13.44,6.88c2.08,2.71,3.23,7.19,3.44,13.44
			c0,2.09-0.11,4.9-0.31,8.44l-0.63,8.44v3.44c0,12.3,3.23,19.17,9.69,20.63c3.75,0.83,7.5,1.25,11.25,1.25
			c12.29,0,25.74-4.48,40.32-13.44l2.51-1.57l2.81-1.56c2.08-1.25,3.95-2.19,5.62-2.81c3.13-1.25,6.05-1.88,8.76-1.88
			c1.25,0,2.39,0.11,3.43,0.32c6.26,1.87,11.57,7.81,15.95,17.81c2.5,5.63,3.75,10.53,3.75,14.69c0,3.55-0.84,6.57-2.5,9.07
			c-4.8,8.12-12.72,17.5-23.76,28.13l-6.88,6.56l-6.87,6.25c-5.21,5.01-9.38,9.49-12.51,13.45c-17.08,19.58-30.42,37.92-40.01,55.01
			c-12.92,22.92-19.69,44.28-20.31,64.07v7.19c0.2,2.71,0.62,4.9,1.25,6.57c1.45,3.54,4.06,5.31,7.81,5.31
			c0.83,0,1.77-0.1,2.82-0.31c6.45-1.25,13.44-3.85,20.94-7.82c26.67-15,49.49-37.5,68.45-67.51c16.46-26.05,28.86-55.84,37.2-89.4
			c0-0.41,0.2-0.72,0.62-0.93l0.31-0.32c0.42-0.2,0.73-0.31,0.94-0.31c0.42,0,0.73,0.11,0.94,0.31
			c12.08,8.55,21.46,17.2,28.13,25.95C862.64,533.89,867.33,545.56,867.75,557.64z"/>
	</g>
</g>
<text transform="matrix(1 0 0 1 1419.5067 752.2665)" class="st0" style="font-family:'SaekanaClean'; font-size:912.9114px;">Cravvelo</text>
<g>
	
		<text transform="matrix(1 0 0 1 3725.6182 2055.9819)" style="fill:#280274; font-family:'BlindsAudience-Regular'; font-size:363.0611px;">hub</text>
</g>
<text transform="matrix(1 0 0 1 1419.5026 1950.0487)" class="st0" style="font-family:'SaekanaClean'; font-size:912.9114px;">Cravvelo</text>
<g>
	
		<text transform="matrix(1 0 0 1 3657.3909 3324.469)" style="fill:#280274; font-family:'BlindsAudience-Regular'; font-size:363.0611px;">plus</text>
</g>
<text transform="matrix(1 0 0 1 1419.5028 3218.5359)" class="st0" style="font-family:'SaekanaClean'; font-size:912.9114px;">Cravvelo</text>
<g>
	<g>
		<g>
			<path class="st1" d="M184.08,2016.48l-12.1,7.44c-1.62,0.98-3.02,2.28-4.13,3.83c-1.11,1.55-1.89,3.32-2.31,5.19
				c-0.42,1.87-0.46,3.81-0.12,5.7c0.34,1.89,1.05,3.69,2.1,5.29l7.73,12.05c1.35,2.05,2.15,4.42,2.33,6.88
				c0.18,2.46-0.28,4.93-1.33,7.15c-1.05,2.23-2.65,4.13-4.64,5.53c-1.99,1.39-4.31,2.23-6.71,2.43l-14.01,1.29
				c-1.87,0.16-3.69,0.71-5.35,1.62c-1.66,0.91-3.12,2.15-4.29,3.65c-1.17,1.5-2.03,3.23-2.53,5.09c-0.49,1.85-0.61,3.79-0.35,5.7
				l1.86,14.29c0.35,2.44,0.07,4.94-0.81,7.23c-0.88,2.3-2.34,4.32-4.23,5.86c-1.89,1.54-4.13,2.55-6.52,2.92s-4.82,0.1-7.07-0.79
				l-13.23-5.04c-1.75-0.68-3.62-0.99-5.5-0.91c-1.87,0.08-3.71,0.55-5.4,1.39c-1.69,0.83-3.2,2.01-4.43,3.46
				c-1.23,1.45-2.16,3.14-2.73,4.97l-4.39,13.7c-0.72,2.35-2.03,4.47-3.8,6.15c-1.77,1.67-3.94,2.84-6.29,3.39
				c-2.35,0.55-4.8,0.46-7.11-0.26c-2.31-0.72-4.39-2.04-6.04-3.84l-9.75-10.41c-1.29-1.4-2.85-2.51-4.57-3.27
				c-1.72-0.76-3.58-1.15-5.46-1.15s-3.74,0.39-5.46,1.15c-1.72,0.76-3.28,1.87-4.57,3.27l-9.75,10.41
				c-1.65,1.8-3.73,3.12-6.04,3.84c-2.31,0.72-4.76,0.81-7.11,0.26c-2.35-0.55-4.52-1.72-6.29-3.39c-1.77-1.67-3.08-3.79-3.8-6.15
				l-4.39-13.7c-0.57-1.83-1.5-3.52-2.73-4.97c-1.23-1.45-2.74-2.62-4.43-3.46c-1.69-0.83-3.53-1.3-5.4-1.39
				c-1.87-0.08-3.74,0.23-5.5,0.91l-13.23,5.04c-2.25,0.89-4.69,1.16-7.07,0.79c-2.38-0.38-4.63-1.38-6.52-2.92
				c-1.89-1.54-3.34-3.56-4.23-5.86c-0.88-2.3-1.17-4.79-0.81-7.23l1.86-14.29c0.26-1.9,0.14-3.84-0.35-5.7
				c-0.49-1.85-1.35-3.59-2.53-5.09c-1.17-1.5-2.63-2.75-4.29-3.65c-1.66-0.91-3.48-1.46-5.35-1.62l-14.01-1.32
				c-2.41-0.19-4.72-1.03-6.71-2.43c-1.99-1.39-3.59-3.3-4.64-5.52c-1.05-2.23-1.51-4.69-1.33-7.15c0.17-2.46,0.98-4.84,2.33-6.88
				l7.73-12.03c1.04-1.6,1.76-3.4,2.1-5.29s0.3-3.83-0.12-5.7c-0.42-1.87-1.2-3.64-2.31-5.19c-1.11-1.55-2.51-2.85-4.13-3.83
				l-12.1-7.44c-2.08-1.24-3.81-3.03-5.01-5.16c-1.2-2.14-1.83-4.56-1.83-7.03s0.63-4.89,1.83-7.03c1.2-2.14,2.93-3.92,5.01-5.16
				l12.1-7.44c1.62-0.98,3.02-2.28,4.13-3.83c1.11-1.55,1.89-3.32,2.31-5.19c0.42-1.87,0.46-3.81,0.12-5.7
				c-0.34-1.89-1.05-3.69-2.1-5.29l-7.73-12.05c-1.35-2.05-2.15-4.42-2.33-6.88s0.28-4.93,1.33-7.15c1.05-2.22,2.65-4.13,4.64-5.53
				c1.99-1.39,4.31-2.23,6.71-2.43l14.01-1.29c1.87-0.16,3.69-0.71,5.35-1.62c1.66-0.91,3.12-2.15,4.29-3.65s2.03-3.23,2.53-5.09
				c0.49-1.85,0.61-3.79,0.35-5.7l-1.86-14.29c-0.35-2.44-0.07-4.94,0.81-7.23c0.88-2.3,2.34-4.32,4.23-5.86
				c1.89-1.54,4.13-2.55,6.52-2.92c2.38-0.38,4.82-0.1,7.07,0.79l13.23,5.04c1.75,0.68,3.62,0.99,5.5,0.91
				c1.87-0.08,3.71-0.55,5.4-1.39c1.69-0.83,3.2-2.01,4.43-3.46c1.23-1.45,2.16-3.14,2.73-4.97l4.39-13.7
				c0.72-2.35,2.03-4.47,3.8-6.15c1.77-1.67,3.94-2.84,6.29-3.39c2.35-0.55,4.8-0.46,7.11,0.26c2.31,0.72,4.39,2.04,6.04,3.84
				l9.75,10.41c1.29,1.4,2.85,2.51,4.57,3.27c1.72,0.76,3.58,1.15,5.46,1.15s3.74-0.39,5.46-1.15c1.72-0.76,3.28-1.87,4.57-3.27
				l9.75-10.41c1.65-1.8,3.73-3.12,6.04-3.84c2.31-0.72,4.76-0.81,7.11-0.26c2.35,0.55,4.52,1.72,6.29,3.39
				c1.77,1.67,3.08,3.79,3.8,6.15l4.39,13.7c0.57,1.83,1.5,3.52,2.73,4.97c1.23,1.45,2.74,2.62,4.43,3.46
				c1.69,0.83,3.53,1.3,5.4,1.39c1.87,0.08,3.74-0.23,5.5-0.91l13.23-5.04c2.25-0.89,4.69-1.16,7.07-0.79s4.63,1.38,6.52,2.92
				c1.89,1.54,3.34,3.56,4.23,5.86c0.88,2.3,1.17,4.79,0.81,7.23l-1.86,14.29c-0.26,1.9-0.14,3.84,0.35,5.7
				c0.49,1.85,1.35,3.59,2.53,5.09c1.17,1.5,2.63,2.75,4.29,3.65c1.66,0.91,3.48,1.46,5.35,1.62l14.01,1.32
				c2.41,0.19,4.72,1.03,6.71,2.43c1.99,1.39,3.59,3.3,4.64,5.52c1.05,2.22,1.51,4.69,1.33,7.15c-0.17,2.46-0.98,4.84-2.33,6.88
				l-7.73,12.03c-1.04,1.6-1.76,3.4-2.1,5.29c-0.34,1.89-0.3,3.83,0.12,5.7c0.42,1.87,1.2,3.64,2.31,5.19
				c1.11,1.55,2.51,2.85,4.13,3.83l12.1,7.44c2.08,1.24,3.81,3.03,5.01,5.16c1.2,2.14,1.83,4.56,1.83,7.03s-0.63,4.89-1.83,7.03
				C187.89,2013.45,186.17,2015.24,184.08,2016.48L184.08,2016.48z"/>
			<circle class="st2" cx="42.91" cy="2004.29" r="106.05"/>
		</g>
	</g>
	<g>
		<path class="st0" d="M42.57,1919.59c1.69-0.19,3.32-0.28,4.89-0.28c4.14,0,7.86,0.72,11.19,2.16c5.45,2.38,8.77,6.36,9.96,11.94
			c0.44,2.07,0.66,4.26,0.66,6.58c0,3.7-0.6,7.68-1.79,11.94c-1.44,5.26-3.89,11.03-7.33,17.3c-7.9,14.41-16.7,24.63-26.42,30.64
			c-2.32,1.5-4.48,2.6-6.49,3.29c-2.01,0.69-3.89,1.03-5.64,1.03c-0.44,0-0.91-0.03-1.41-0.09c-3.57-0.56-6.24-2.32-7.99-5.26
			c-1.32-2.38-1.97-5.26-1.97-8.65v-1.22c0-0.12,0.06-0.25,0.19-0.38c0.06-0.19,0.19-0.28,0.38-0.28c2.26-0.12,4.82-1.69,7.71-4.7
			c0.94-1.06,2.04-2.38,3.29-3.95l0.66-0.94l0.66-0.85c0.56-0.81,0.97-1.35,1.22-1.6c5.76-7.46,10.53-14.98,14.29-22.56l0.38-0.75
			l0.47-0.94c0.38-0.81,0.72-1.54,1.03-2.16c0.94-1.88,1.66-3.57,2.16-5.08c0.81-2.32,1.22-4.26,1.22-5.83
			c0-1.38-0.31-2.51-0.94-3.38c-0.69-0.88-1.57-1.32-2.63-1.32c-1.5,0-3.38,0.78-5.64,2.35c-1.38,0.94-2.85,2.13-4.42,3.57
			c-0.56,0.5-1.13,1.07-1.69,1.69l-0.66,0.66l-0.28,0.28l-0.19,0.19C13.9,1956.84,3.09,1973.98-5,1994.41
			c-3.2,8.34-5.08,16.89-5.64,25.66c-0.13,2.26-0.19,4.29-0.19,6.11v1.69c0.06,3.2,0.38,6.05,0.94,8.55
			c1.44,6.45,4.54,10.5,9.31,12.13c2.13,0.75,4.23,1.13,6.3,1.13c5.51,0,11.56-2.79,18.14-8.37c6.58-5.58,12.14-11.84,16.69-18.8
			c4.54-6.96,7.79-11.62,9.73-14.01c1.82-2.26,3.82-4.23,6.02-5.92c2.19-1.69,4.86-2.76,7.99-3.2h0.09c0.06,0,0.12,0.03,0.19,0.09
			c0.19,0.06,0.28,0.19,0.28,0.38v0.09c-0.13,1.5-0.5,3.29-1.13,5.36l-0.94,2.63l-0.94,2.54c-4.26,7.77-7.87,14.6-10.81,20.49
			c-4.2,8.4-9.32,15.71-15.37,21.95c-6.05,6.24-12.17,11.01-18.38,14.34c-4.7,2.5-9.71,3.76-15.04,3.76c-1.75,0-3.54-0.13-5.36-0.38
			c-7.46-1.07-13.63-4.2-18.52-9.4c-6.02-6.39-9.84-14.92-11.47-25.57c-0.56-3.76-0.85-7.61-0.85-11.56c0-5.45,0.53-11.09,1.6-16.92
			c4.01-21.62,13.85-41.23,29.52-58.84c6.83-7.65,13.6-13.79,20.3-18.42C25.99,1924.04,34.36,1920.59,42.57,1919.59z"/>
		<path class="st0" d="M129.8,1995.63c2.69,3.38,4.1,6.89,4.23,10.53v0.66c0,5.58-2.22,11.12-6.67,16.64
			c-9.46,11.78-20.74,20.05-33.84,24.82c-2.19,0.81-4.2,1.44-6.02,1.88c-2.38,0.62-4.61,1.03-6.67,1.22
			c-0.63,0.06-1.22,0.09-1.79,0.09c-4.32,0-7.74-1.22-10.25-3.67c-3.01-3.01-4.86-7.02-5.55-12.03c-0.19-1.38-0.28-2.76-0.28-4.14
			c0-2.95,0.41-6.05,1.22-9.31c3.01-11.97,10.93-23.81,23.78-35.53c-1.75,0.31-3.48,0.47-5.17,0.47c-2.01,0.31-3.82,1.13-5.45,2.44
			c-1.63,1.32-6.02,6.67-13.16,16.07l-0.09,0.09c-0.06,0.13-0.16,0.19-0.28,0.19c-0.13,0.06-0.38,0.16-0.75,0.28l-2.91,0.75
			c-0.88,0.31-1.66,0.53-2.35,0.66c-0.44,0.06-0.81,0.09-1.13,0.09c-1.19,0-1.94-0.44-2.26-1.32c-0.06-0.25-0.09-0.5-0.09-0.75
			c0-1.38,0.88-3.29,2.63-5.73c0.63-0.88,2.66-3.42,6.11-7.61c3.38-4.07,5.08-7.71,5.08-10.9v-0.19c-1.5-1.32-2.35-4.14-2.54-8.46
			v-1.5c0-5.45,1.54-9.9,4.61-13.35c1.38-1.63,3.1-2.63,5.17-3.01c0.44-0.06,0.88-0.09,1.32-0.09c1.69,0,3.04,0.69,4.04,2.07
			c0.63,0.82,0.97,2.16,1.03,4.04c0,0.63-0.03,1.47-0.09,2.54l-0.19,2.54v1.03c0,3.7,0.97,5.77,2.91,6.2
			c1.13,0.25,2.26,0.38,3.38,0.38c3.7,0,7.74-1.35,12.13-4.04l0.75-0.47l0.85-0.47c0.63-0.38,1.19-0.66,1.69-0.85
			c0.94-0.38,1.82-0.56,2.63-0.56c0.38,0,0.72,0.03,1.03,0.09c1.88,0.56,3.48,2.35,4.79,5.36c0.75,1.69,1.13,3.17,1.13,4.42
			c0,1.07-0.25,1.97-0.75,2.73c-1.44,2.44-3.82,5.26-7.14,8.46l-2.07,1.97l-2.07,1.88c-1.57,1.5-2.82,2.85-3.76,4.04
			c-5.14,5.89-9.15,11.41-12.03,16.54c-3.89,6.89-5.92,13.32-6.11,19.27v2.16c0.06,0.82,0.19,1.47,0.38,1.97
			c0.44,1.07,1.22,1.6,2.35,1.6c0.25,0,0.53-0.03,0.85-0.09c1.94-0.38,4.04-1.16,6.3-2.35c8.02-4.51,14.88-11.28,20.59-20.3
			c4.95-7.83,8.68-16.79,11.19-26.88c0-0.12,0.06-0.22,0.19-0.28l0.09-0.09c0.12-0.06,0.22-0.09,0.28-0.09
			c0.12,0,0.22,0.03,0.28,0.09C124.97,1990.4,127.79,1993,129.8,1995.63z"/>
	</g>
</g>
</svg>
